<svg xmlns="http://www.w3.org/2000/svg" viewBox="0 0 1200 744">
  <defs>
    <radialGradient id="g" cx="50%" cy="50%" r="55%"><stop stop-color="#b7192f"/><stop offset="1" stop-color="#050505"/></radialGradient>
  </defs>
  <rect width="1200" height="744" fill="#050505"/>
  <ellipse cx="610" cy="370" rx="370" ry="300" fill="url(#g)" opacity=".8"/>
  <g fill="none" stroke="#ed3544" stroke-linecap="round">
    <path d="M70 560C190 480 255 260 425 290s190-210 375-135c94 38 120 130 320 130" stroke-width="15"/>
    <path d="M130 95c120 80 100 190 260 225 150 33 150 140 285 145 120 5 180-95 365-47" stroke-width="9"/>
    <path d="M85 365c140-15 175 100 320 55 105-33 120-145 260-118 90 18 150 105 395 50" stroke-width="7"/>
  </g>
  <g fill="#ff4654"><circle cx="130" cy="95" r="14"/><circle cx="70" cy="560" r="17"/><circle cx="425" cy="290" r="11"/><circle cx="800" cy="155" r="15"/><circle cx="1040" cy="418" r="13"/></g>
  <g fill="none" stroke="#dce8ea" opacity=".45"><circle cx="610" cy="370" r="250"/><circle cx="610" cy="370" r="185" stroke-dasharray="4 10"/><circle cx="610" cy="370" r="105"/></g>
  <text x="55" y="62" fill="#dce8ea" font-family="Arial" font-size="20" letter-spacing="5">NEURAL DYNAMICS</text>
  <text x="1010" y="690" fill="#dce8ea" font-family="Arial" font-size="17" letter-spacing="4">01 / 07</text>
</svg>
